<svg xmlns="http://www.w3.org/2000/svg" width="10" height="13" viewBox="0 0 10 13">
    <path fill="#A8B6C8" fill-rule="evenodd" d="M10 10.77c0 .612-.163 1.136-.488 1.574-.326.437-.718.656-1.176.656H1.664c-.458 0-.85-.219-1.176-.656C.163 11.906 0 11.382 0 10.77c0-.476.022-.926.066-1.35.045-.423.127-.85.246-1.279.12-.429.273-.796.458-1.102.184-.306.43-.555.734-.749.305-.193.655-.29 1.05-.29.683.718 1.498 1.077 2.446 1.077.948 0 1.763-.359 2.445-1.077.396 0 .746.097 1.051.29.305.194.55.443.734.75.185.305.338.672.457 1.101.12.43.202.856.247 1.28.044.423.066.873.066 1.35zM8 3a2.89 2.89 0 0 1-.879 2.121A2.89 2.89 0 0 1 5 6a2.89 2.89 0 0 1-2.121-.879A2.89 2.89 0 0 1 2 3c0-.828.293-1.535.879-2.121A2.89 2.89 0 0 1 5 0a2.89 2.89 0 0 1 2.121.879A2.89 2.89 0 0 1 8 3z"/>
</svg>
