<svg xmlns="http://www.w3.org/2000/svg" xmlns:xlink="http://www.w3.org/1999/xlink" width="59" height="54" viewBox="0 0 59 54">
    <defs>
        <path id="a" d="M.008.115h13.879v17.79H.008z"/>
    </defs>
    <g fill="none" fill-rule="evenodd">
        <path fill="#FFF" d="M26.35 39.924l-6.22 1.062c-1.135.194-1.62-1.715-.48-1.91l6.22-1.062c1.135-.194 1.62 1.715.48 1.91M51.329 35.51l-16.493 2.477c-1.174.177-1.675-1.562-.495-1.74l8.426-1.265-36.869-2.484c-1.212-.082-1.183-1.689 0-1.805l5.584-.546 27.261-2.669-26.374-1.46c-1.223-.067-1.17-1.671 0-1.803l4.063-.46 17.195-1.946-16.257-.797c-.994-.049-1.33-1.625-.247-1.772l15.804-2.144-10.501-1.146c-.95-.104-1.37-1.597-.247-1.772l8.737-1.362-4.744-.897c-.868-.164-.908-1.61 0-1.74l4.352-.624a4.097 4.097 0 0 1-.242-.173c-1.162-.92-1.108-2.19-1.133-3.51-.022-1.164 1.84-1.16 1.862 0 .018.955-.116 1.815.877 2.35.708.382 1.479.679 2.21 1.015.692.317.557 1.537-.222 1.649l-1.974.283 4.554.86c.874.166.904 1.6 0 1.74l-7.198 1.122 11.046 1.206c.946.103 1.372 1.62.247 1.772l-13.403 1.818 17.603.863c1.225.06 1.168 1.672 0 1.804l-4.063.46-17.61 1.993 27.442 1.518c1.215.067 1.178 1.69 0 1.804l-5.584.547-28.12 2.753 34.265 2.309c.983.066 1.342 1.607.248 1.772M42.27 52c-.484 0-.946-.262-1.158-.704-.288-.601-.003-1.309.636-1.58 4.313-1.828 8.106-4.678 10.97-8.242.423-.526 1.22-.63 1.778-.232.56.398.67 1.147.247 1.673-3.12 3.882-7.253 6.987-11.952 8.98a1.33 1.33 0 0 1-.52.105M55.14 39c-.175 0-.351-.042-.518-.131-.56-.3-.783-1.022-.497-1.612.244-.502.475-1.018.687-1.534.25-.608.922-.886 1.5-.625.578.263.844.968.594 1.575a29.781 29.781 0 0 1-.75 1.673A1.136 1.136 0 0 1 55.14 39"/>
        <g transform="translate(45)">
            <mask id="b" fill="#fff">
                <use xlink:href="#a"/>
            </mask>
            <path fill="#FFF" d="M12.665 17.904a1.22 1.22 0 0 1-1.17-.865C9.7 11.05 5.813 5.827.55 2.329A1.203 1.203 0 0 1 .215.651 1.228 1.228 0 0 1 1.91.321c5.734 3.81 9.97 9.503 11.927 16.029a1.208 1.208 0 0 1-.822 1.504c-.116.034-.234.05-.349.05" mask="url(#b)"/>
        </g>
        <path fill="#FFF" d="M25.916 54c-1.13 0-2.237-.277-3.189-.515l-.38-.095a29.419 29.419 0 0 1-10.892-5.223C5.671 43.735 1.655 37.12.436 30.018c-1.222-7.126.145-14.384 3.85-20.437a1.22 1.22 0 0 1 1.673-.404c.574.347.756 1.092.407 1.663-3.45 5.634-4.67 12.125-3.53 18.771 1.116 6.509 4.8 12.573 10.105 16.637a27.008 27.008 0 0 0 9.988 4.791l.392.098c1.226.306 2.493.624 3.495.324 1.633-.486 1.75-1.986 1.75-4.397v-8.885c0-.669.545-1.21 1.217-1.21S31 37.51 31 38.178v8.884c0 2.261.002 5.678-3.485 6.718a5.573 5.573 0 0 1-1.6.219"/>
    </g>
</svg>
