<svg xmlns="http://www.w3.org/2000/svg" width="9" height="11" viewBox="0 0 9 11">
    <path fill="#A8B6C8" fill-rule="evenodd" d="M3 6h4V4.286c0-.631-.195-1.17-.586-1.616C6.024 2.223 5.552 2 5 2c-.552 0-1.023.223-1.414.67-.39.446-.586.985-.586 1.616V6zm6-.25v4.5a.723.723 0 0 1-.219.531.723.723 0 0 1-.531.219H.75a.723.723 0 0 1-.531-.219A.723.723 0 0 1 0 10.25v-4.5c0-.208.073-.385.219-.531A.723.723 0 0 1 .75 5H1V3.5c0-.958.344-1.781 1.031-2.469C2.72.344 3.541 0 4.5 0c.958 0 1.781.344 2.469 1.031C7.656 1.72 8 2.541 8 3.5V5h.25c.208 0 .385.073.531.219A.723.723 0 0 1 9 5.75z"/>
</svg>
