<svg xmlns="http://www.w3.org/2000/svg" xmlns:xlink="http://www.w3.org/1999/xlink" width="113" height="106" viewBox="0 0 113 106">
    <defs>
        <path id="a" d="M.015.224H25.79v34.59H.015z"/>
    </defs>
    <g fill="none" fill-rule="evenodd">
        <path fill="#4A35B8" d="M49.698 77.848c-4.147.708-8.293 1.417-12.44 2.124-2.268.388-3.237-3.43-.956-3.82l12.44-2.124c2.268-.388 3.237 3.43.956 3.82M98.715 70.095l-31.582 4.88c-2.248.348-3.208-3.077-.948-3.427l16.134-2.493-70.6-4.893c-2.32-.16-2.265-3.326 0-3.554l10.693-1.076 52.202-5.257-50.503-2.874c-2.342-.133-2.24-3.293 0-3.554l7.78-.906 32.926-3.833-31.13-1.57c-1.903-.095-2.548-3.2-.473-3.49l30.263-4.222-20.108-2.258c-1.82-.204-2.623-3.146-.474-3.49l16.732-2.683-9.084-1.766c-1.664-.323-1.74-3.17 0-3.427l8.333-1.23a7.852 7.852 0 0 1-.464-.34c-2.224-1.814-2.122-4.316-2.17-6.916-.041-2.292 3.525-2.284 3.567 0 .033 1.882-.222 3.577 1.68 4.632 1.354.751 2.83 1.335 4.232 1.997 1.323.624 1.066 3.028-.426 3.248l-3.781.558 8.722 1.695c1.672.325 1.73 3.15 0 3.427l-13.784 2.21 21.15 2.375c1.813.203 2.629 3.19.474 3.49l-25.664 3.58 33.707 1.7c2.346.119 2.237 3.294 0 3.555l-7.78.905-33.722 3.926 52.548 2.99c2.328.132 2.257 3.327 0 3.554l-10.692 1.077-53.848 5.422 65.616 4.547c1.881.131 2.568 3.167.474 3.491M80.359 102a2.355 2.355 0 0 1-2.15-1.408c-.535-1.203-.006-2.617 1.18-3.16 8.01-3.656 15.055-9.357 20.374-16.484a2.337 2.337 0 0 1 3.302-.465 2.41 2.41 0 0 1 .458 3.347c-5.794 7.764-13.47 13.974-22.197 17.958a2.319 2.319 0 0 1-.967.212M106.28 76c-.35 0-.703-.074-1.035-.23-1.122-.526-1.568-1.789-.995-2.82.487-.878.95-1.782 1.375-2.685.5-1.063 1.842-1.551 2.999-1.093 1.156.46 1.688 1.693 1.188 2.756a49.15 49.15 0 0 1-1.499 2.928c-.403.726-1.204 1.144-2.033 1.144"/>
        <g transform="translate(87)">
            <mask id="b" fill="#fff">
                <use xlink:href="#a"/>
            </mask>
            <path fill="#563DBD" d="M23.521 34.814c-.977 0-1.88-.661-2.172-1.683-3.335-11.643-10.555-21.8-20.33-28.602C-.02 3.806-.297 2.345.4 1.266 1.099.188 2.507-.1 3.547.623c10.648 7.41 18.515 18.479 22.15 31.169.356 1.245-.327 2.554-1.528 2.924a2.196 2.196 0 0 1-.647.098" mask="url(#b)"/>
        </g>
        <path fill="#4A35B8" d="M50.16 106c-2.186 0-4.33-.542-6.171-1.008l-.737-.184a56.52 56.52 0 0 1-7.55-2.444 56.831 56.831 0 0 1-13.53-7.771C10.975 85.926 3.202 72.99.844 59.103c-2.366-13.937.28-28.13 7.452-39.966a2.348 2.348 0 0 1 3.237-.791 2.374 2.374 0 0 1 .788 3.253c-6.676 11.018-9.038 23.71-6.832 36.707 2.16 12.728 9.29 24.587 19.558 32.535a52.135 52.135 0 0 0 12.41 7.13 51.773 51.773 0 0 0 6.922 2.239l.76.19c2.37.6 4.823 1.22 6.763.635 3.16-.951 3.388-3.884 3.386-8.6V75.062a2.362 2.362 0 0 1 2.356-2.368c1.3 0 2.356 1.06 2.356 2.368v17.373c.002 4.422.004 11.104-6.744 13.137-1.022.308-2.064.429-3.096.429"/>
    </g>
</svg>
