<svg width="16" height="17" viewBox="0 0 16 17" xmlns="http://www.w3.org/2000/svg">
    <g fill="none" fill-rule="evenodd">
        <path d="M4.556 8.574c-.098-.375-.196-.847-.406-1.552-.167-.557-.342-.86-.47-1.233-.155-.46-.303-.73-.496-1.19-.14-.33-.364-1.05-.457-1.44-.12-.51.033-.93.244-1.21.26-.34.97-.49 1.36-.35.37.13.75.51.92.78.29.46.36.63.72 1.54.4.99.57 1.92.61 2.23l.09.45c0-.04-.04-1.12-.04-1.16-.03-1.03-.06-1.83-.04-2.94.01-.13.07-.59.09-.72.08-.5.31-.8.68-.98.41-.2.923-.216 1.4-.018.42.172.624.55.685 1.02.015.11.095.99.094 1.11-.014 1.022.005 1.64.014 2.17.004.23.003 1.627.017 1.47.06-.655.095-3.19.345-3.94.143-.43.404-.744.793-.93.43-.2 1.115-.07 1.406.246.284.305.445.69.48 1.15.03.407-.02.9-.02 1.247 0 .87-.022 1.325-.04 2.12 0 .04-.013.3.025.184.095-.28.19-.54.267-.744.05-.124.24-.613.36-.86.117-.232.21-.37.418-.686.2-.31.42-.446.67-.56.54-.234 1.11.11 1.3.59.09.217.01.715-.023 1.107-.06.646-.252 1.305-.35 1.65-.13.445-.274 1.233-.34 1.6-.072.393-.234 1.38-.36 1.82-.085.3-.37.98-.65 1.383 0 0-1.075 1.25-1.193 1.815-.115.564-.076.568-.1.966-.023.4.12.926.12.926s-.8.104-1.23.034c-.39-.06-.877-.84-1-1.078-.174-.33-.54-.27-.684-.025-.225.38-.71 1.07-1.05 1.11-.67.08-2.055.03-3.14.02 0 0 .185-1.015-.227-1.36-.307-.26-.83-.786-1.146-1.06l-.83-.92c-.284-.36-.63-1.096-1.243-1.988-.35-.5-1.03-1.08-1.286-1.577-.235-.42-.34-.95-.2-1.32.223-.597.673-.9 1.36-.83.52.05.85.2 1.24.53.223.19.57.537.75.75.16.196.2.277.375.51.23.307.302.46.214.12"
              fill="#FFF"/>
        <path d="M4.556 8.574c-.098-.375-.196-.847-.406-1.552-.167-.557-.342-.86-.47-1.233-.155-.46-.303-.73-.496-1.19-.14-.33-.364-1.05-.457-1.44-.12-.51.033-.93.244-1.21.26-.34.97-.49 1.36-.35.37.13.75.51.92.78.29.46.36.63.72 1.54.4.99.57 1.92.61 2.23l.09.45c0-.04-.04-1.12-.04-1.16-.03-1.03-.06-1.83-.04-2.94.01-.13.07-.59.09-.72.08-.5.31-.8.68-.98.41-.2.923-.216 1.4-.018.42.172.624.55.685 1.02.015.11.095.99.094 1.11-.014 1.022.005 1.64.014 2.17.004.23.003 1.627.017 1.47.06-.655.095-3.19.345-3.94.143-.43.404-.744.793-.93.43-.2 1.115-.07 1.406.246.284.305.445.69.48 1.15.03.407-.02.9-.02 1.247 0 .87-.022 1.325-.04 2.12 0 .04-.013.3.025.184.095-.28.19-.54.267-.744.05-.124.24-.613.36-.86.117-.232.21-.37.418-.686.2-.31.42-.446.67-.56.54-.234 1.11.11 1.3.59.09.217.01.715-.023 1.107-.06.646-.252 1.305-.35 1.65-.13.445-.274 1.233-.34 1.6-.072.393-.234 1.38-.36 1.82-.085.3-.37.98-.65 1.383 0 0-1.075 1.25-1.193 1.815-.115.564-.076.568-.1.966-.023.4.12.926.12.926s-.8.104-1.23.034c-.39-.06-.877-.84-1-1.078-.174-.33-.54-.27-.684-.025-.225.38-.71 1.07-1.05 1.11-.67.08-2.055.03-3.14.02 0 0 .185-1.015-.227-1.36-.307-.26-.83-.786-1.146-1.06l-.83-.92c-.284-.36-.63-1.096-1.243-1.988-.35-.5-1.03-1.08-1.286-1.577-.235-.42-.34-.95-.2-1.32.223-.597.673-.9 1.36-.83.52.05.85.2 1.24.53.223.19.57.537.75.75.16.196.2.277.375.51.23.307.302.46.214.12"
              stroke="#000" stroke-width=".75" stroke-linecap="round" stroke-linejoin="round"/>
        <path d="M11.566 12.734v-3.46M9.55 12.746l-.015-3.473m-1.98.032l.02 3.426" stroke="#000" stroke-width=".75" stroke-linecap="round"/>
    </g>
</svg>